# xmcd CD database file
#
# Track frame offsets:
#	150
#	13608
#	26268
#	38233
#	52350
#	63610
#	82253
#	98638
#	111858
#	125078
#	141700
#	156313
#	173810
#	191935
#	207475
#	221495
#	237530
#	249993
#	263613
#	280940
#
# Disc length: 3892 seconds
#
# Revision: 1
# Processed by: cddbd v1.5.1PL0 Copyright (c) Steve Scherf et al.
# Submitted via: CDex 1.60beta1
#
DISCID=3a0f3214
DTITLE=ジャンゴ・ラインハルト - ベスト・オブ・ジャンゴ・ラインハルト
DYEAR=1900
DGENRE=Jazz
TTITLE0=マイナー・スイング
TTITLE1=ハニーサックル・ローズ
TTITLE2=ジャンゴロジー
TTITLE3=アフター・ユーヴ・ゴーン 
TTITLE4=スイング 42 
TTITLE5=ラ・メール 
TTITLE6=ラヴァー・マン
TTITLE7=ジョージア・オン・マイ・マインド
TTITLE8=アヴァロン
TTITLE9=ローズ・ルーム 
TTITLE10=スターダスト
TTITLE11=ダイナ 
TTITLE12=レディ・ビー・グッド
TTITLE13=イ・ソウ・スターズ
TTITLE14=ブルー・ドラッグ 
TTITLE15=コンフェッシン
TTITLE16=雲 
TTITLE17=ボレロ 
TTITLE18=スイート・コーラス
TTITLE19=ストックホルム 
EXTD=
EXTT0=
EXTT1=
EXTT2=
EXTT3=
EXTT4=
EXTT5=
EXTT6=
EXTT7=
EXTT8=
EXTT9=
EXTT10=
EXTT11=
EXTT12=
EXTT13=
EXTT14=
EXTT15=
EXTT16=
EXTT17=
EXTT18=
EXTT19=
PLAYORDER=
